<?xml version="1.0" encoding="UTF-8" standalone="no"?><svg xmlns="http://www.w3.org/2000/svg" xmlns:xlink="http://www.w3.org/1999/xlink" contentScriptType="application/ecmascript" contentStyleType="text/css" height="567px" preserveAspectRatio="none" style="width:823px;height:567px;" version="1.1" viewBox="0 0 823 567" width="823px" zoomAndPan="magnify"><defs><filter height="300%" id="fzsbdrja8u6nz" width="300%" x="-1" y="-1"><feGaussianBlur result="blurOut" stdDeviation="2.0"/><feColorMatrix in="blurOut" result="blurOut2" type="matrix" values="0 0 0 0 0 0 0 0 0 0 0 0 0 0 0 0 0 0 .4 0"/><feOffset dx="4.0" dy="4.0" in="blurOut2" result="blurOut3"/><feBlend in="SourceGraphic" in2="blurOut3" mode="normal"/></filter></defs><g><!--cluster java.lang--><polygon fill="#FFFFFF" filter="url(#fzsbdrja8u6nz)" points="22,24,99,24,106,46.2969,148,46.2969,148,339,22,339,22,24" style="stroke: #000000; stroke-width: 2.0;"/><line style="stroke: #000000; stroke-width: 2.0;" x1="22" x2="106" y1="46.2969" y2="46.2969"/><text fill="#000000" font-family="sans-serif" font-size="14" font-weight="bold" lengthAdjust="spacingAndGlyphs" textLength="71" x="26" y="38.9951">java.lang</text><!--cluster java.io--><polygon fill="#FFFFFF" filter="url(#fzsbdrja8u6nz)" points="172,240,230,240,237,262.2969,801,262.2969,801,555,172,555,172,240" style="stroke: #000000; stroke-width: 2.0;"/><line style="stroke: #000000; stroke-width: 2.0;" x1="172" x2="237" y1="262.2969" y2="262.2969"/><text fill="#000000" font-family="sans-serif" font-size="14" font-weight="bold" lengthAdjust="spacingAndGlyphs" textLength="52" x="176" y="254.9951">java.io</text><!--class Object--><rect fill="#FEFECE" filter="url(#fzsbdrja8u6nz)" height="48" id="Object" style="stroke: #A80036; stroke-width: 1.5;" width="71" x="49.5" y="59"/><ellipse cx="64.5" cy="75" fill="#ADD1B2" rx="11" ry="11" style="stroke: #A80036; stroke-width: 1.0;"/><path d="M67.4688,80 Q66.8906,80.5 66.25,80.75 Q65.6094,81 64.9063,81 Q62.4063,81 61.0859,79.4609 Q59.7656,77.9219 59.7656,75 Q59.7656,72.0781 61.0859,70.5391 Q62.4063,69 64.9063,69 Q65.6094,69 66.2578,69.25 Q66.9063,69.5 67.4688,70 L67.4688,73 Q66.8438,71.9688 66.25,71.4844 Q65.6563,71 65.0156,71 Q63.6875,71 63,72.0078 Q62.3125,73.0156 62.3125,75 Q62.3125,76.9844 63,77.9922 Q63.6875,79 65.0156,79 Q65.6563,79 66.25,78.5156 Q66.8438,78.0313 67.4688,77 L67.4688,80 Z "/><text fill="#000000" font-family="sans-serif" font-size="12" lengthAdjust="spacingAndGlyphs" textLength="39" x="78.5" y="79.1543">Object</text><line style="stroke: #A80036; stroke-width: 1.5;" x1="50.5" x2="119.5" y1="91" y2="91"/><line style="stroke: #A80036; stroke-width: 1.5;" x1="50.5" x2="119.5" y1="99" y2="99"/><!--class Throwable--><rect fill="#FEFECE" filter="url(#fzsbdrja8u6nz)" height="48" id="Throwable" style="stroke: #A80036; stroke-width: 1.5;" width="94" x="38" y="167"/><ellipse cx="53" cy="183" fill="#ADD1B2" rx="11" ry="11" style="stroke: #A80036; stroke-width: 1.0;"/><path d="M55.9688,188 Q55.3906,188.5 54.75,188.75 Q54.1094,189 53.4063,189 Q50.9063,189 49.5859,187.4609 Q48.2656,185.9219 48.2656,183 Q48.2656,180.0781 49.5859,178.5391 Q50.9063,177 53.4063,177 Q54.1094,177 54.7578,177.25 Q55.4063,177.5 55.9688,178 L55.9688,181 Q55.3438,179.9688 54.75,179.4844 Q54.1563,179 53.5156,179 Q52.1875,179 51.5,180.0078 Q50.8125,181.0156 50.8125,183 Q50.8125,184.9844 51.5,185.9922 Q52.1875,187 53.5156,187 Q54.1563,187 54.75,186.5156 Q55.3438,186.0313 55.9688,185 L55.9688,188 Z "/><text fill="#000000" font-family="sans-serif" font-size="12" lengthAdjust="spacingAndGlyphs" textLength="62" x="67" y="187.1543">Throwable</text><line style="stroke: #A80036; stroke-width: 1.5;" x1="39" x2="131" y1="199" y2="199"/><line style="stroke: #A80036; stroke-width: 1.5;" x1="39" x2="131" y1="207" y2="207"/><!--class Exception--><rect fill="#FEFECE" filter="url(#fzsbdrja8u6nz)" height="48" id="Exception" style="stroke: #A80036; stroke-width: 1.5;" width="92" x="39" y="275"/><ellipse cx="54" cy="291" fill="#ADD1B2" rx="11" ry="11" style="stroke: #A80036; stroke-width: 1.0;"/><path d="M56.9688,296 Q56.3906,296.5 55.75,296.75 Q55.1094,297 54.4063,297 Q51.9063,297 50.5859,295.4609 Q49.2656,293.9219 49.2656,291 Q49.2656,288.0781 50.5859,286.5391 Q51.9063,285 54.4063,285 Q55.1094,285 55.7578,285.25 Q56.4063,285.5 56.9688,286 L56.9688,289 Q56.3438,287.9688 55.75,287.4844 Q55.1563,287 54.5156,287 Q53.1875,287 52.5,288.0078 Q51.8125,289.0156 51.8125,291 Q51.8125,292.9844 52.5,293.9922 Q53.1875,295 54.5156,295 Q55.1563,295 55.75,294.5156 Q56.3438,294.0313 56.9688,293 L56.9688,296 Z "/><text fill="#000000" font-family="sans-serif" font-size="12" lengthAdjust="spacingAndGlyphs" textLength="60" x="68" y="295.1543">Exception</text><line style="stroke: #A80036; stroke-width: 1.5;" x1="40" x2="130" y1="307" y2="307"/><line style="stroke: #A80036; stroke-width: 1.5;" x1="40" x2="130" y1="315" y2="315"/><!--class IOException--><rect fill="#FEFECE" filter="url(#fzsbdrja8u6nz)" height="48" id="IOException" style="stroke: #A80036; stroke-width: 1.5;" width="105" x="360.5" y="275"/><ellipse cx="375.5" cy="291" fill="#ADD1B2" rx="11" ry="11" style="stroke: #A80036; stroke-width: 1.0;"/><path d="M378.4688,296 Q377.8906,296.5 377.25,296.75 Q376.6094,297 375.9063,297 Q373.4063,297 372.0859,295.4609 Q370.7656,293.9219 370.7656,291 Q370.7656,288.0781 372.0859,286.5391 Q373.4063,285 375.9063,285 Q376.6094,285 377.2578,285.25 Q377.9063,285.5 378.4688,286 L378.4688,289 Q377.8438,287.9688 377.25,287.4844 Q376.6563,287 376.0156,287 Q374.6875,287 374,288.0078 Q373.3125,289.0156 373.3125,291 Q373.3125,292.9844 374,293.9922 Q374.6875,295 376.0156,295 Q376.6563,295 377.25,294.5156 Q377.8438,294.0313 378.4688,293 L378.4688,296 Z "/><text fill="#000000" font-family="sans-serif" font-size="12" lengthAdjust="spacingAndGlyphs" textLength="73" x="389.5" y="295.1543">IOException</text><line style="stroke: #A80036; stroke-width: 1.5;" x1="361.5" x2="464.5" y1="307" y2="307"/><line style="stroke: #A80036; stroke-width: 1.5;" x1="361.5" x2="464.5" y1="315" y2="315"/><!--class EOFException--><rect fill="#FEFECE" filter="url(#fzsbdrja8u6nz)" height="48" id="EOFException" style="stroke: #A80036; stroke-width: 1.5;" width="116" x="243" y="383"/><ellipse cx="258" cy="399" fill="#ADD1B2" rx="11" ry="11" style="stroke: #A80036; stroke-width: 1.0;"/><path d="M260.9688,404 Q260.3906,404.5 259.75,404.75 Q259.1094,405 258.4063,405 Q255.9063,405 254.5859,403.4609 Q253.2656,401.9219 253.2656,399 Q253.2656,396.0781 254.5859,394.5391 Q255.9063,393 258.4063,393 Q259.1094,393 259.7578,393.25 Q260.4063,393.5 260.9688,394 L260.9688,397 Q260.3438,395.9688 259.75,395.4844 Q259.1563,395 258.5156,395 Q257.1875,395 256.5,396.0078 Q255.8125,397.0156 255.8125,399 Q255.8125,400.9844 256.5,401.9922 Q257.1875,403 258.5156,403 Q259.1563,403 259.75,402.5156 Q260.3438,402.0313 260.9688,401 L260.9688,404 Z "/><text fill="#000000" font-family="sans-serif" font-size="12" lengthAdjust="spacingAndGlyphs" textLength="84" x="272" y="403.1543">EOFException</text><line style="stroke: #A80036; stroke-width: 1.5;" x1="244" x2="358" y1="415" y2="415"/><line style="stroke: #A80036; stroke-width: 1.5;" x1="244" x2="358" y1="423" y2="423"/><!--class MalformedURLException--><rect fill="#FEFECE" filter="url(#fzsbdrja8u6nz)" height="48" id="MalformedURLException" style="stroke: #A80036; stroke-width: 1.5;" width="179" x="188.5" y="491"/><ellipse cx="203.5" cy="507" fill="#ADD1B2" rx="11" ry="11" style="stroke: #A80036; stroke-width: 1.0;"/><path d="M206.4688,512 Q205.8906,512.5 205.25,512.75 Q204.6094,513 203.9063,513 Q201.4063,513 200.0859,511.4609 Q198.7656,509.9219 198.7656,507 Q198.7656,504.0781 200.0859,502.5391 Q201.4063,501 203.9063,501 Q204.6094,501 205.2578,501.25 Q205.9063,501.5 206.4688,502 L206.4688,505 Q205.8438,503.9688 205.25,503.4844 Q204.6563,503 204.0156,503 Q202.6875,503 202,504.0078 Q201.3125,505.0156 201.3125,507 Q201.3125,508.9844 202,509.9922 Q202.6875,511 204.0156,511 Q204.6563,511 205.25,510.5156 Q205.8438,510.0313 206.4688,509 L206.4688,512 Z "/><text fill="#000000" font-family="sans-serif" font-size="12" lengthAdjust="spacingAndGlyphs" textLength="147" x="217.5" y="511.1543">MalformedURLException</text><line style="stroke: #A80036; stroke-width: 1.5;" x1="189.5" x2="366.5" y1="523" y2="523"/><line style="stroke: #A80036; stroke-width: 1.5;" x1="189.5" x2="366.5" y1="531" y2="531"/><!--class FileNotFoundException--><rect fill="#FEFECE" filter="url(#fzsbdrja8u6nz)" height="48" id="FileNotFoundException" style="stroke: #A80036; stroke-width: 1.5;" width="171" x="402.5" y="491"/><ellipse cx="417.5" cy="507" fill="#ADD1B2" rx="11" ry="11" style="stroke: #A80036; stroke-width: 1.0;"/><path d="M420.4688,512 Q419.8906,512.5 419.25,512.75 Q418.6094,513 417.9063,513 Q415.4063,513 414.0859,511.4609 Q412.7656,509.9219 412.7656,507 Q412.7656,504.0781 414.0859,502.5391 Q415.4063,501 417.9063,501 Q418.6094,501 419.2578,501.25 Q419.9063,501.5 420.4688,502 L420.4688,505 Q419.8438,503.9688 419.25,503.4844 Q418.6563,503 418.0156,503 Q416.6875,503 416,504.0078 Q415.3125,505.0156 415.3125,507 Q415.3125,508.9844 416,509.9922 Q416.6875,511 418.0156,511 Q418.6563,511 419.25,510.5156 Q419.8438,510.0313 420.4688,509 L420.4688,512 Z "/><text fill="#000000" font-family="sans-serif" font-size="12" lengthAdjust="spacingAndGlyphs" textLength="139" x="431.5" y="511.1543">FileNotFoundException</text><line style="stroke: #A80036; stroke-width: 1.5;" x1="403.5" x2="572.5" y1="523" y2="523"/><line style="stroke: #A80036; stroke-width: 1.5;" x1="403.5" x2="572.5" y1="531" y2="531"/><!--class UnknownHostException--><rect fill="#FEFECE" filter="url(#fzsbdrja8u6nz)" height="48" id="UnknownHostException" style="stroke: #A80036; stroke-width: 1.5;" width="176" x="609" y="491"/><ellipse cx="624" cy="507" fill="#ADD1B2" rx="11" ry="11" style="stroke: #A80036; stroke-width: 1.0;"/><path d="M626.9688,512 Q626.3906,512.5 625.75,512.75 Q625.1094,513 624.4063,513 Q621.9063,513 620.5859,511.4609 Q619.2656,509.9219 619.2656,507 Q619.2656,504.0781 620.5859,502.5391 Q621.9063,501 624.4063,501 Q625.1094,501 625.7578,501.25 Q626.4063,501.5 626.9688,502 L626.9688,505 Q626.3438,503.9688 625.75,503.4844 Q625.1563,503 624.5156,503 Q623.1875,503 622.5,504.0078 Q621.8125,505.0156 621.8125,507 Q621.8125,508.9844 622.5,509.9922 Q623.1875,511 624.5156,511 Q625.1563,511 625.75,510.5156 Q626.3438,510.0313 626.9688,509 L626.9688,512 Z "/><text fill="#000000" font-family="sans-serif" font-size="12" lengthAdjust="spacingAndGlyphs" textLength="144" x="638" y="511.1543">UnknownHostException</text><line style="stroke: #A80036; stroke-width: 1.5;" x1="610" x2="784" y1="523" y2="523"/><line style="stroke: #A80036; stroke-width: 1.5;" x1="610" x2="784" y1="531" y2="531"/><!--class SocketException--><rect fill="#FEFECE" filter="url(#fzsbdrja8u6nz)" height="48" id="SocketException" style="stroke: #A80036; stroke-width: 1.5;" width="133" x="505.5" y="383"/><ellipse cx="520.5" cy="399" fill="#ADD1B2" rx="11" ry="11" style="stroke: #A80036; stroke-width: 1.0;"/><path d="M523.4688,404 Q522.8906,404.5 522.25,404.75 Q521.6094,405 520.9063,405 Q518.4063,405 517.0859,403.4609 Q515.7656,401.9219 515.7656,399 Q515.7656,396.0781 517.0859,394.5391 Q518.4063,393 520.9063,393 Q521.6094,393 522.2578,393.25 Q522.9063,393.5 523.4688,394 L523.4688,397 Q522.8438,395.9688 522.25,395.4844 Q521.6563,395 521.0156,395 Q519.6875,395 519,396.0078 Q518.3125,397.0156 518.3125,399 Q518.3125,400.9844 519,401.9922 Q519.6875,403 521.0156,403 Q521.6563,403 522.25,402.5156 Q522.8438,402.0313 523.4688,401 L523.4688,404 Z "/><text fill="#000000" font-family="sans-serif" font-size="12" lengthAdjust="spacingAndGlyphs" textLength="101" x="534.5" y="403.1543">SocketException</text><line style="stroke: #A80036; stroke-width: 1.5;" x1="506.5" x2="637.5" y1="415" y2="415"/><line style="stroke: #A80036; stroke-width: 1.5;" x1="506.5" x2="637.5" y1="423" y2="423"/><!--link Object to Throwable--><path d="M85,127.024 C85,140.579 85,155.038 85,166.678 " fill="none" id="Object-Throwable" style="stroke: #A80036; stroke-width: 1.0;"/><polygon fill="none" points="78.0001,127,85,107,92.0001,127,78.0001,127" style="stroke: #A80036; stroke-width: 1.0;"/><!--link Throwable to Exception--><path d="M85,235.024 C85,248.579 85,263.038 85,274.678 " fill="none" id="Throwable-Exception" style="stroke: #A80036; stroke-width: 1.0;"/><polygon fill="none" points="78.0001,235,85,215,92.0001,235,78.0001,235" style="stroke: #A80036; stroke-width: 1.0;"/><!--link Exception to IOException--><path d="M151.278,299 C220.993,299 290.709,299 360.424,299 " fill="none" id="Exception-IOException" style="stroke: #A80036; stroke-width: 1.0;"/><polygon fill="none" points="151.125,306,131.125,299,151.125,292,151.125,306" style="stroke: #A80036; stroke-width: 1.0;"/><!--link IOException to EOFException--><path d="M374.108,336.809 C358.018,352.036 339.844,369.237 325.642,382.678 " fill="none" id="IOException-EOFException" style="stroke: #A80036; stroke-width: 1.0;"/><polygon fill="none" points="369.36,331.664,388.698,323,378.983,341.832,369.36,331.664" style="stroke: #A80036; stroke-width: 1.0;"/><!--link IOException to SocketException--><path d="M464.419,334.279 C488.26,350.173 515.968,368.645 537.293,382.862 " fill="none" id="IOException-SocketException" style="stroke: #A80036; stroke-width: 1.0;"/><polygon fill="none" points="460.259,339.919,447.501,323,468.025,328.27,460.259,339.919" style="stroke: #A80036; stroke-width: 1.0;"/><!--link IOException to FileNotFoundException--><path d="M427.871,342.432 C443.463,386.922 467.393,455.201 479.841,490.7196 " fill="none" id="IOException-FileNotFoundException" style="stroke: #A80036; stroke-width: 1.0;"/><polygon fill="none" points="421.178,344.499,421.169,323.309,434.39,339.868,421.178,344.499" style="stroke: #A80036; stroke-width: 1.0;"/><!--link IOException to UnknownHostException--><path d="M435.544,340.873 C456.173,378.033 484.071,427.593 488,431 C522.287,460.736 568.532,480.5809 608.805,493.3861 " fill="none" id="IOException-UnknownHostException" style="stroke: #A80036; stroke-width: 1.0;"/><polygon fill="none" points="429.285,344.02,425.724,323.132,441.534,337.24,429.285,344.02" style="stroke: #A80036; stroke-width: 1.0;"/><!--link IOException to MalformedURLException--><path d="M407.326,343.545 C402.285,370.399 392.966,404.628 376,431 C360.439,455.189 335.676,476.0751 314.936,490.8454 " fill="none" id="IOException-MalformedURLException" style="stroke: #A80036; stroke-width: 1.0;"/><polygon fill="none" points="400.469,342.094,410.572,323.468,414.29,344.329,400.469,342.094" style="stroke: #A80036; stroke-width: 1.0;"/><!--
@startuml

package (java.lang) {
	class Object
	class Throwable
	class Exception
}

Object <|- - Throwable
Throwable <|- - Exception

package (java.io) {
	class IOException
	class EOFException
	class MalformedURLException
	class FileNotFoundException
	class UnknownHostException
	class SocketException
}

Exception <|- IOException
IOException <|- - EOFException
IOException <|- - SocketException
IOException <|- - - FileNotFoundException
IOException <|- - - UnknownHostException
IOException <|- - - MalformedURLException

@enduml

PlantUML version 1.2017.15(Mon Jul 03 18:45:34 CEST 2017)
(GPL source distribution)
Java Runtime: OpenJDK Runtime Environment
JVM: OpenJDK 64-Bit Server VM
Java Version: 1.8.0_152-release-915-b12
Operating System: Linux
OS Version: 4.13.0-16-generic
Default Encoding: UTF-8
Language: en
Country: US
--></g></svg>